#!OML:ASF E:\inclinewalkrobotboard\Project 1\Capture day 1\Session 1\subject1.ASF
:FULLY-SPECIFIED
:DEGREES
401
root 10.9828 16.647 -4.04209 -169.138 6.01783 178.603
lowerback -5.40317 4.5182 -5.68291
upperback 1.87078 6.53622 -1.07293
thorax 4.46432 3.10959 2.62151
lowerneck -8.01914 -0.663877 -4.9106
upperneck 25.3232 -3.34376 5.98906
head 9.43369 -2.03305 2.46066
rclavicle -3.46134e-014 -4.87022e-015
rhumerus -7.54022 -18.6264 -90.2114
rradius 16.0041
rwrist 32.5467
rhand -9.9279 -34.0615
rfingers 7.12502
rthumb 16.0531 -63.4165
lclavicle -3.46134e-014 -4.87022e-015
lhumerus -50.0035 29.3543 52.1726
lradius 8.85026
lwrist -48.1686
lhand -23.1712 -24.9168
lfingers 7.12502
lthumb 3.27775 5.03776
rfemur 2.63882 10.781 10.3164
rtibia 13.13
rfoot -23.4698 -5.76588
rtoes -42.0024
lfemur -25.2428 -7.74885 -6.06609
ltibia 13.8001
lfoot -12.9182 14.3071
ltoes -58.4748
402
root 10.8315 16.6322 -4.25582 -169.172 6.94423 179.053
lowerback -5.70837 4.66906 -6.72295
upperback 2.07585 6.87399 -1.22553
thorax 4.73015 3.23993 3.0948
lowerneck -8.42763 -0.85904 -4.69028
upperneck 24.9873 -3.78783 6.81775
head 9.43328 -2.11013 2.66016
rclavicle 4.96962e-015 -7.37491e-014
rhumerus -7.80391 -17.6095 -89.9185
rradius 16.5386
rwrist 30.8517
rhand -9.53216 -34.6789
rfingers 7.12502
rthumb 16.4341 -64.0028
lclavicle 4.96962e-015 -7.37491e-014
lhumerus -48.769 29.6432 52.7747
lradius 8.18185
lwrist -47.8159
lhand -23.5401 -24.1574
lfingers 7.12502
lthumb 2.92147 5.80231
rfemur 2.9479 11.4847 10.0522
rtibia 13.5724
rfoot -22.9938 -4.7687
rtoes -42.0984
lfemur -24.6948 -7.01904 -6.33702
ltibia 14.8014
lfoot -13.7471 13.7517
ltoes -58.5201
403
root 10.7324 16.6584 -4.39031 -169.244 6.64249 178.504
lowerback -4.81139 4.54116 -9.13332
upperback 2.13862 6.85687 -1.59027
thorax 4.07884 3.21431 3.93699
lowerneck -8.81717 -1.25376 -4.43703
upperneck 24.4355 -4.52012 7.77502
head 9.3817 -2.30142 2.86419
rclavicle -2.65378e-014 2.50469e-014
rhumerus -8.31295 -17.5963 -89.5111
rradius 17.2208
rwrist 29.7089
rhand -10.3594 -34.8586
rfingers 7.12502
rthumb 15.6375 -64.2466
lclavicle -2.65378e-014 2.50469e-014
lhumerus -46.7424 29.5334 53.775
lradius 7.31749
lwrist -48.7012
lhand -24.671 -23.4242
lfingers 7.12502
lthumb 1.8293 6.54769
rfemur 3.16542 11.3858 9.24821
rtibia 14.2844
rfoot -21.9126 -4.37143
rtoes -40.979
lfemur -24.9841 -6.41623 -7.69567
ltibia 16.0656
lfoot -13.5984 12.139
ltoes -58.6343
404
root 10.6233 16.7377 -4.52746 -168.555 6.47118 179.147
lowerback -4.47319 4.64121 -10.1078
upperback 1.94254 7.01744 -1.72953
thorax 3.57258 3.30813 4.27925
lowerneck -8.84191 -1.6832 -4.45761
upperneck 23.6947 -5.27227 8.82875
head 9.21238 -2.53687 3.14463
rclavicle -2.20651e-014 6.99722e-014
rhumerus -9.46011 -17.8163 -88.7157
rradius 18.0662
rwrist 28.9827
rhand -11.5957 -34.3701
rfingers 7.12502
rthumb 14.4466 -63.8473
lclavicle -2.20651e-014 6.99722e-014
lhumerus -44.7236 29.0135 54.8364
lradius 6.93381
lwrist -50.0414
lhand -25.0667 -23.0765
lfingers 7.12502
lthumb 1.44711 6.89835
rfemur 2.29787 11.534 9.52941
rtibia 15.0876
rfoot -21.2158 -4.47142
rtoes -41.0286
lfemur -25.4361 -6.69986 -7.29851
ltibia 16.3551
lfoot -14.0185 11.9441
ltoes -58.474
405
root 10.4963 16.815 -4.68692 -167.503 6.58542 179.527
lowerback -4.96094 4.71409 -10.9072
upperback 1.76679 7.25382 -2.06198
thorax 3.58481 3.42282 4.41418
lowerneck -8.79137 -2.02935 -4.62566
upperneck 22.9594 -5.88924 9.91279
head 9.03509 -2.73284 3.47438
rclavicle 3.27995e-014 -5.56597e-014
rhumerus -10.7217 -17.8206 -87.8896
rradius 18.8988
rwrist 28.2886
rhand -11.5703 -33.5647
rfingers 7.12502
rthumb 14.4711 -63.0401
lclavicle 3.27995e-014 -5.56597e-014
lhumerus -42.953 28.3633 55.6278
lradius 7.17339
lwrist -51.2419
lhand -25.1591 -22.7953
lfingers 7.12502
lthumb 1.35793 7.18011
rfemur 1.5401 11.7154 9.25685
rtibia 14.871
rfoot -20.3026 -4.16743
rtoes -39.7407
lfemur -25.6388 -7.43114 -7.28613
ltibia 15.8202
lfoot -14.7485 12.4061
ltoes -58.1555
406
root 10.3729 16.878 -4.81963 -165.669 6.43222 180.353
lowerback -5.89218 4.69581 -11.042
upperback 1.35273 7.35427 -2.35648
thorax 3.68125 3.48261 4.25962
lowerneck -8.9238 -2.35896 -4.80541
upperneck 22.4781 -6.49337 10.9025
head 8.98686 -2.93489 3.77443
rclavicle 1.98785e-016 -2.06736e-014
rhumerus -11.8793 -17.4495 -87.1043
rradius 19.6368
rwrist 27.071
rhand -10.5716 -32.6475
rfingers 7.12502
rthumb 15.4331 -62.0513
lclavicle 1.98785e-016 -2.06736e-014
lhumerus -41.1858 27.5565 56.2877
lradius 7.44759
lwrist -51.4518
lhand -25.2396 -22.9072
lfingers 7.12502
lthumb 1.28017 7.06866
rfemur 0.0405544 11.7067 9.42713
rtibia 14.3629
rfoot -19.7001 -4.06924
rtoes -38.4894
lfemur -26.923 -7.53425 -6.58786
ltibia 15.5172
lfoot -15.1432 12.5526
ltoes -57.91
407
root 10.2454 16.9418 -4.9613 -164.351 6.6685 181.46
lowerback -6.49526 4.88462 -10.8176
upperback 1.06561 7.65078 -2.50487
thorax 3.71992 3.64132 4.0484
lowerneck -8.93112 -2.62094 -4.99465
upperneck 22.0517 -6.96808 11.7081
head 8.92286 -3.10342 4.02774
rclavicle 5.80451e-014 -3.4191e-014
rhumerus -13.0373 -16.2691 -86.2626
rradius 20.222
rwrist 25.1961
rhand -9.75198 -32.0159
rfingers 7.12502
rthumb 16.2225 -61.3572
lclavicle 5.80451e-014 -3.4191e-014
lhumerus -39.9194 26.6042 56.7217
lradius 7.83266
lwrist -50.7582
lhand -25.3679 -23.6375
lfingers 7.12502
lthumb 1.15623 6.33915
rfemur -1.05356 11.5047 9.80091
rtibia 13.677
rfoot -19.3128 -3.68769
rtoes -37.9013
lfemur -27.0189 -7.50252 -5.65255
ltibia 14.4691
lfoot -15.5252 12.9824
ltoes -57.739
408
root 10.1202 16.9975 -5.09426 -163.467 7.25042 182.435
lowerback -6.77034 5.11214 -10.7371
upperback 0.947039 7.9739 -2.58008
thorax 3.72368 3.80539 3.96799
lowerneck -9.30718 -2.92281 -5.21833
upperneck 21.5735 -7.42526 12.4511
head 8.91481 -3.25077 4.2616
rclavicle -7.55382e-015 -1.04163e-013
rhumerus -13.898 -14.7164 -85.5288
rradius 20.5351
rwrist 23.8014
rhand -9.11501 -31.6735
rfingers 7.12502
rthumb 16.8357 -60.9637
lclavicle -7.55382e-015 -1.04163e-013
lhumerus -39.198 25.8729 56.9036
lradius 8.53207
lwrist -50.0791
lhand -25.4333 -24.4573
lfingers 7.12502
lthumb 1.09309 5.51964
rfemur -1.99565 11.3444 9.99298
rtibia 13.1573
rfoot -18.9029 -3.24563
rtoes -37.7318
lfemur -26.4226 -7.5515 -4.90475
ltibia 13.1372
lfoot -15.9563 13.6541
ltoes -57.6108
409
root 10.0045 17.047 -5.19564 -162.777 7.65803 183.203
lowerback -6.60789 5.14243 -10.8543
upperback 0.897648 7.99353 -2.57988
thorax 3.56188 3.82227 4.00893
lowerneck -9.08651 -2.98929 -5.36499
upperneck 20.5982 -7.40828 12.9404
head 8.56493 -3.2192 4.4461
rclavicle -1.27222e-014 -2.8625e-014
rhumerus -14.0829 -13.7781 -84.9575
rradius 20.2938
rwrist 24.0933
rhand -8.93143 -31.1876
rfingers 7.12502
rthumb 17.0124 -60.4627
lclavicle -1.27222e-014 -2.8625e-014
lhumerus -38.823 25.5792 56.8836
lradius 9.34531
lwrist -49.7966
lhand -25.1861 -24.9729
lfingers 7.12502
lthumb 1.33181 5.00265
rfemur -3.04512 11.358 10.1123
rtibia 13.0551
rfoot -18.5671 -2.9573
rtoes -37.6171
lfemur -26.1593 -7.61085 -4.39009
ltibia 12.4153
lfoot -16.327 14.0554
ltoes -57.4287
